<?xml version="1.0" encoding="UTF-8" standalone="no"?>
<!-- Generator: Adobe Illustrator 25.2.1, SVG Export Plug-In . SVG Version: 6.00 Build 0)  -->

<svg
   version="1.1"
   x="0px"
   y="0px"
   viewBox="0 0 192.5 146.60001"
   xml:space="preserve"
   id="svg113"
   sodipodi:docname="logo_no_text.svg"
   width="192.5"
   height="146.60001"
   inkscape:version="1.2 (dc2aedaf03, 2022-05-15)"
   xmlns:inkscape="http://www.inkscape.org/namespaces/inkscape"
   xmlns:sodipodi="http://sodipodi.sourceforge.net/DTD/sodipodi-0.dtd"
   xmlns="http://www.w3.org/2000/svg"
   xmlns:svg="http://www.w3.org/2000/svg"><defs
   id="defs117" /><sodipodi:namedview
   id="namedview115"
   pagecolor="#ffffff"
   bordercolor="#666666"
   borderopacity="1.0"
   inkscape:showpageshadow="2"
   inkscape:pageopacity="0.0"
   inkscape:pagecheckerboard="0"
   inkscape:deskcolor="#d1d1d1"
   showgrid="false"
   inkscape:zoom="2.8289242"
   inkscape:cx="86.25187"
   inkscape:cy="76.000623"
   inkscape:window-width="1920"
   inkscape:window-height="1011"
   inkscape:window-x="0"
   inkscape:window-y="0"
   inkscape:window-maximized="1"
   inkscape:current-layer="svg113" />
<style
   type="text/css"
   id="style95">
	.st0{fill-rule:evenodd;clip-rule:evenodd;fill:#F59E3E;}
	.st1{fill-rule:evenodd;clip-rule:evenodd;fill:#27282C;}
	.st2{fill:#27282C;}
	.st3{fill:#FFFFFF;}
	.st4{fill:#F59E3E;}
</style>

<g
   id="VG"
   transform="translate(-55.5,-65.7)">
	<g
   id="g110">
		<polygon
   class="st4"
   points="81.1,126.7 89.6,126.7 89.6,121.3 86.3,121.3 86.3,118.3 81.1,118.3 "
   id="polygon102" />
		<path
   class="st4"
   d="m 211.8,169.2 -3.7,-33.2 -9.7,-13.6 22.5,-16.3 -5.8,-26.7 -26.8,-9 -45,23.6 -17.3,-9.7 8.2,-11.4 10.3,3.5 -2.2,7.4 5.8,1.8 3.8,-13.2 -20.1,-6.7 -14.9,20.5 26.3,14.8 45.6,-23.9 21.2,7 4.1,19.5 -19.2,13.9 -8.4,-11.8 -67,6 -41.8,-9.7 -17.7,42.1 21.6,13.2 20.5,-10.1 -22.6,51.7 h -7.7 c -0.2,-1.1 -2.6,-3.4 -3.5,-3.9 -1.4,-0.8 -3,-1 -4.7,-1 -1.6,0 -3.2,0.1 -4.5,0.8 -1.4,0.8 -2.5,1.9 -3.4,3.2 -0.2,0.4 -0.1,0.8 0.2,1 0.1,0.1 0.3,0.1 0.4,0.1 h 7.2 l 2,3.7 -2,3.7 h -7.2 c -0.4,0 -0.8,0.3 -0.8,0.8 0,0.2 0.1,0.3 0.1,0.4 0.8,1.3 2,2.4 3.3,3.2 1.3,0.7 2.9,0.8 4.5,0.8 1.7,0 3.3,-0.1 4.7,-1 0.9,-0.6 3.3,-2.8 3.5,-3.9 H 102 c 0.2,1.1 2.6,3.4 3.5,3.9 1.4,0.8 3,1 4.7,1 1.6,0 3.2,-0.1 4.5,-0.8 1.4,-0.8 2.5,-1.9 3.4,-3.2 0.2,-0.4 0.1,-0.8 -0.2,-1 -0.1,-0.1 -0.3,-0.1 -0.4,-0.1 h -7.2 l -2,-3.7 2,-3.7 h 7.3 c 0.4,0 0.8,-0.3 0.8,-0.8 0,-0.2 -0.1,-0.3 -0.1,-0.4 -0.8,-1.3 -2,-2.4 -3.3,-3.2 -1.3,-0.7 -2.9,-0.8 -4.5,-0.8 -1.7,0 -3.3,0.1 -4.7,1 -0.9,0.6 -3.3,2.8 -3.5,3.9 h -5.5 l 19,-34.7 10.6,20.4 -3.3,27.6 h 15.6 l 4.3,-28.6 -6.7,-26.5 h 22.4 l -8,13.2 13.7,42 h 14.8 l -6,-37.5 9.4,-14.3 13.1,18.3 33.9,33.5 H 248 Z M 90.7,196.8 h -3.8 l 20.9,-47.5 4.4,8.4 z m 109.7,-22 -18.2,-25.1 -15.5,23.7 5.1,32.7 h -3 l -11.5,-35.2 12.3,-20 h -41.2 l 8.3,32.9 -3.3,22.2 H 130 l 2.6,-22.5 -24,-46.3 -26.8,13 -14.3,-8.6 13.8,-32.6 37.7,8.9 64.5,-5.6 18.7,26.1 3.8,33.3 28.8,34.4 h -2.7 z"
   id="path104" />
		<polygon
   class="st4"
   points="183.2,122.6 182.5,116.5 175.4,117.2 176.1,123.4 "
   id="polygon106" />
		<polygon
   class="st4"
   points="172.2,123.7 171.6,117.7 143,120.7 143.5,126.7 "
   id="polygon108" />
	</g>
</g>
</svg>
