<?xml version="1.0" encoding="utf-8"?>
<!-- Generator: Adobe Illustrator 25.2.1, SVG Export Plug-In . SVG Version: 6.00 Build 0)  -->
<svg version="1.1" id="VG" xmlns="http://www.w3.org/2000/svg" xmlns:xlink="http://www.w3.org/1999/xlink" x="0px" y="0px"
	 viewBox="0 0 161.6 122.3" style="enable-background:new 0 0 161.6 122.3;" xml:space="preserve">
<style type="text/css">
	.st0{fill:#27282C;}
	.st1{fill:#FFFFFF;}
	.st2{fill:#F59E3E;}
</style>
<g>
	<g>
		<polygon class="st2" points="45.9,28.6 43,28.6 43,33.1 47.6,33.1 47.6,30.2 45.9,30.2 		"/>
		<path class="st2" d="M114.1,56.2l-2-18l-5.3-7.4L119,22l-3.1-14.5l-14.6-4.9L76.8,15.4l-9.4-5.3l4.5-6.2l5.6,1.9l-1.2,4l3.2,1
			l2.1-7.2L70.6,0l-8.1,11.1l14.3,8l24.8-13l11.5,3.8l2.2,10.6l-10.4,7.6l-4.5-6.4L63.9,25l-22.7-5.3l-9.7,22.9l11.7,7.2l11.1-5.5
			L42.1,72.4h-4.2c-0.1-0.6-1.4-1.8-1.9-2.1c-0.8-0.5-1.6-0.5-2.6-0.5c-0.9,0-1.7,0-2.5,0.4c-0.7,0.4-1.4,1-1.8,1.8
			c-0.1,0.2-0.1,0.4,0.1,0.6c0.1,0,0.1,0.1,0.2,0.1l3.9,0l1.1,2l-1.1,2l-3.9,0c-0.2,0-0.4,0.2-0.4,0.4c0,0.1,0,0.2,0.1,0.2
			c0.4,0.7,1.1,1.3,1.8,1.7c0.7,0.4,1.6,0.4,2.5,0.4c0.9,0,1.8-0.1,2.6-0.5c0.5-0.3,1.8-1.5,1.9-2.1l16.5,0c0.1,0.6,1.4,1.8,1.9,2.1
			c0.8,0.5,1.6,0.5,2.6,0.5c0.9,0,1.7,0,2.5-0.4c0.7-0.4,1.4-1,1.8-1.8c0.1-0.2,0.1-0.4-0.1-0.6c-0.1,0-0.1-0.1-0.2-0.1l-3.9,0
			l-1.1-2l1.1-2h3.9c0.2,0,0.4-0.2,0.4-0.4c0-0.1,0-0.2-0.1-0.2c-0.4-0.7-1.1-1.3-1.8-1.7c-0.7-0.4-1.6-0.4-2.5-0.4
			c-0.9,0-1.8,0.1-2.6,0.5c-0.5,0.3-1.8,1.5-1.9,2.1h-3l10.3-18.9l5.8,11.1l-1.8,15h8.5l2.3-15.5L73,49.6h12.2l-4.3,7.2l7.4,22.8h8
			l-3.3-20.4l5.1-7.8l7.1,10l18.4,18.2h10L114.1,56.2z M48.3,71.2h-2l11.3-25.8l2.4,4.5L48.3,71.2z M107.9,59.3L98,45.6l-8.4,12.9
			l2.8,17.8h-1.6l-6.3-19.1l6.7-10.8H68.8l4.5,17.9l-1.8,12.1h-1.8L71,64L58,38.9L43.5,46l-7.8-4.7l7.5-17.7l20.5,4.8l35.1-3.1
			l10.2,14.2l2,18.1l15.6,18.7h-1.4L107.9,59.3z"/>
		<polygon class="st2" points="94.3,28 94.7,31.3 98.5,30.9 98.1,27.6 		"/>
		<polygon class="st2" points="76.7,29.9 77,33.1 92.5,31.5 92.2,28.3 		"/>
	</g>
	<g>
		<path class="st1" d="M8,84.7l4,8l4-8h8v24h-8V98.1l-4,6.7l-4-6.7v10.6H0v-24H8z"/>
		<path class="st1" d="M45,85.9c1.9,1.1,3.4,2.6,4.5,4.5c1.1,1.9,1.7,4,1.7,6.2s-0.6,4.3-1.7,6.2c-1.1,1.9-2.6,3.4-4.5,4.5
			c-1.9,1.1-4,1.7-6.2,1.7c-2.3,0-4.3-0.6-6.2-1.7c-1.9-1.1-3.4-2.6-4.5-4.5c-1.1-1.9-1.7-4-1.7-6.2s0.6-4.3,1.7-6.2
			c1.1-1.9,2.6-3.4,4.5-4.5c1.9-1.1,4-1.7,6.2-1.7C41.1,84.2,43.1,84.8,45,85.9z M41.1,100.6c0.7-0.4,1.3-1,1.7-1.7
			c0.4-0.7,0.6-1.5,0.6-2.3s-0.2-1.6-0.6-2.3c-0.4-0.7-1-1.3-1.7-1.7c-0.7-0.4-1.5-0.6-2.3-0.6s-1.6,0.2-2.3,0.6
			c-0.7,0.4-1.3,1-1.7,1.7c-0.4,0.7-0.6,1.5-0.6,2.3s0.2,1.6,0.6,2.3c0.4,0.7,1,1.2,1.7,1.7c0.7,0.4,1.5,0.6,2.3,0.6
			S40.4,101,41.1,100.6z"/>
		<path class="st1" d="M61.6,84.7l5,9.2v-9.2h7.7v24h-7.7l-5-9.2v9.2h-8v-24H61.6z"/>
		<path class="st1" d="M99.1,106.9c-2,1.2-3.8,1.8-5.4,1.8c-1.9,0-3.5-0.7-4.8-2.1c-1.3-1.4-2.4-3.1-3.2-5.3v7.4h-7.9v-24h7.9v7.1
			l4-7.1h7.9l-7,11.6c0,0.6,0.1,1.4,0.4,2.3c0.3,0.9,0.7,1.6,1.2,2.3c0.6,0.7,1.3,1,2.2,1c0.9,0,2-0.4,3.1-1.2L99.1,106.9z"/>
		<path class="st1" d="M116.3,108.7h-14.8v-24h14.8v7.1h-6.8v2.1h5.3v5.9h-5.3v2h6.8V108.7z"/>
		<path class="st1" d="M134.5,108.7h-7.8V98.3l-8.5-13.6h9l3.4,5.3l3.4-5.3h9l-8.5,13.6V108.7z"/>
		<path class="st1" d="M152.6,92.8c0.4,0.2,1,0.5,1.9,0.9c1.3,0.5,2.5,1.1,3.4,1.6c0.9,0.5,1.7,1.3,2.4,2.3c0.7,1,1.1,2.3,1.1,3.8
			c0,1.5-0.4,2.9-1.1,4c-0.7,1.2-1.8,2.1-3.1,2.7c-1.3,0.6-2.9,1-4.7,1c-1.3,0-2.8-0.3-4.4-0.9c-1.6-0.6-3-1.3-4.4-2.2l2.5-5.9
			c1.2,0.7,2.3,1.3,3.4,1.8c1.1,0.5,1.9,0.8,2.5,0.8c0.6,0,1.1-0.1,1.4-0.3c0.4-0.2,0.5-0.5,0.5-1c0-0.3-0.2-0.6-0.6-0.8
			c-0.4-0.2-1-0.5-1.9-0.9c-1.3-0.5-2.4-1.1-3.4-1.6s-1.7-1.3-2.4-2.3c-0.7-1-1-2.3-1-3.8s0.4-2.9,1.1-4.1s1.7-2.1,3.1-2.7
			c1.3-0.6,2.9-1,4.6-1c1.3,0,2.8,0.3,4.2,0.8c1.5,0.5,2.8,1.2,4,2l-2.5,5.7c-0.8-0.5-1.7-1-2.7-1.4c-1-0.4-1.8-0.6-2.7-0.6
			c-0.5,0-0.9,0.1-1.3,0.3c-0.3,0.2-0.5,0.5-0.5,0.9C152,92.3,152.2,92.6,152.6,92.8z"/>
	</g>
	<g>
		<path class="st2" d="M9.1,119.9H7.5l-1.5-5.2c-0.1-0.2-0.1-0.6-0.2-1c-0.1-0.4-0.2-0.7-0.2-0.9c0,0.3-0.1,0.6-0.2,1
			c-0.1,0.4-0.2,0.7-0.2,0.9l-1.4,5.1H2.3l-1.1-4.3L0,111.3h1.4l1.2,5.1c0.2,0.8,0.3,1.5,0.4,2.1c0-0.3,0.1-0.7,0.2-1.1
			c0.1-0.4,0.2-0.8,0.2-1l1.4-5.1h1.4l1.4,5.1c0.1,0.5,0.3,1.2,0.4,2.1c0.1-0.6,0.2-1.3,0.4-2.2l1.2-5h1.4L9.1,119.9z"/>
		<path class="st2" d="M12.6,119.9v-8.7H14v8.7H12.6z"/>
		<path class="st2" d="M19.3,119.9h-1.4v-7.5h-2.6v-1.2h6.5v1.2h-2.6V119.9z"/>
		<path class="st2" d="M30,119.9h-1.4V116h-4v3.9h-1.4v-8.7h1.4v3.5h4v-3.5H30V119.9z"/>
		<path class="st2" d="M34.3,122.3c-0.4,0-0.7,0-1-0.1V121c0.3,0.1,0.6,0.1,0.9,0.1c0.8,0,1.2-0.5,1.2-1.5v-8.4h1.4v8.4
			c0,0.9-0.2,1.6-0.6,2C35.8,122.1,35.1,122.3,34.3,122.3z"/>
		<path class="st2" d="M46.8,115.6c0,1.4-0.4,2.5-1.1,3.3c-0.7,0.8-1.7,1.2-3,1.2c-1.3,0-2.3-0.4-3-1.2c-0.7-0.8-1.1-1.9-1.1-3.3
			c0-1.4,0.4-2.5,1.1-3.3c0.7-0.8,1.7-1.2,3-1.2c1.3,0,2.3,0.4,3,1.2C46.4,113.1,46.8,114.2,46.8,115.6z M40.1,115.6
			c0,1.1,0.2,1.9,0.6,2.4c0.4,0.6,1.1,0.8,1.9,0.8c0.8,0,1.5-0.3,1.9-0.8c0.4-0.5,0.6-1.4,0.6-2.4c0-1.1-0.2-1.9-0.6-2.4
			c-0.4-0.5-1.1-0.8-1.9-0.8c-0.9,0-1.5,0.3-1.9,0.8C40.4,113.7,40.1,114.5,40.1,115.6z"/>
		<path class="st2" d="M48.6,111.3h2.6c1.2,0,2.1,0.2,2.6,0.5c0.5,0.3,0.8,0.9,0.8,1.6c0,0.5-0.1,0.9-0.4,1.3
			c-0.3,0.3-0.6,0.5-1.1,0.6v0.1c0.6,0.1,1.1,0.3,1.3,0.7c0.3,0.3,0.4,0.8,0.4,1.4c0,0.8-0.3,1.4-0.8,1.8c-0.5,0.4-1.3,0.7-2.3,0.7
			h-3.1V111.3z M50,114.8h1.4c0.6,0,1-0.1,1.3-0.3c0.3-0.2,0.4-0.5,0.4-1c0-0.4-0.1-0.7-0.4-0.9c-0.3-0.2-0.8-0.3-1.4-0.3H50V114.8z
			 M50,116v2.7h1.5c0.6,0,1-0.1,1.3-0.3c0.3-0.2,0.5-0.6,0.5-1.1c0-0.5-0.2-0.8-0.5-1s-0.8-0.3-1.4-0.3H50z"/>
		<path class="st2" d="M61.6,117.6c0,0.8-0.3,1.4-0.8,1.8s-1.3,0.7-2.3,0.7c-1,0-1.8-0.2-2.4-0.5v-1.3c0.4,0.2,0.8,0.3,1.3,0.4
			c0.4,0.1,0.9,0.2,1.2,0.2c0.6,0,1-0.1,1.2-0.3s0.4-0.5,0.4-0.9c0-0.3-0.1-0.6-0.4-0.8c-0.2-0.2-0.8-0.5-1.5-0.8
			c-0.8-0.3-1.3-0.7-1.7-1.1c-0.3-0.4-0.5-0.9-0.5-1.5c0-0.7,0.3-1.3,0.8-1.7c0.5-0.4,1.2-0.6,2.1-0.6c0.8,0,1.7,0.2,2.5,0.5
			l-0.5,1.2c-0.8-0.3-1.5-0.5-2.1-0.5c-0.5,0-0.8,0.1-1,0.3c-0.2,0.2-0.4,0.5-0.4,0.8c0,0.2,0,0.4,0.1,0.6c0.1,0.2,0.3,0.3,0.5,0.5
			c0.2,0.1,0.6,0.3,1.2,0.6c0.6,0.3,1.1,0.5,1.4,0.7c0.3,0.2,0.5,0.5,0.7,0.8C61.6,116.8,61.6,117.2,61.6,117.6z"/>
	</g>
</g>
</svg>
