<?xml version="1.0" encoding="utf-8"?>
<!-- Generator: Adobe Illustrator 26.2.1, SVG Export Plug-In . SVG Version: 6.00 Build 0)  -->
<svg version="1.1" xmlns="http://www.w3.org/2000/svg" xmlns:xlink="http://www.w3.org/1999/xlink" x="0px" y="0px"
	 viewBox="0 0 679.7 513.6" style="enable-background:new 0 0 679.7 513.6;" xml:space="preserve">
<style type="text/css">
	.st0{fill:#FFFFFF;}
</style>
<g id="HG">
</g>
<g id="INHALT">
	<g>
		<g>
			<path class="st0" d="M228.2,44.3c-1.2-1.5-2.3-2.7-3.2-3.9c-1.4-2-4.6-2.3-6.2-0.5c-0.6,0.7-1.2,1.3-1.8,1.9
				c-2.4,2.5-4.8,5.1-7.1,7.6c0,3.7,0,7.5,0,11.4c2.3-2.1,4.7-4.2,7-6.3C220.9,51.1,224.6,47.6,228.2,44.3z"/>
			<path class="st0" d="M210.9,63.6c-0.3,0.3-0.6,0.6-0.9,0.9c0,5.8,0,11.5,0,16.5c0.4-0.6,0.8-1.2,1.2-1.8c1.8-2.8,3.1-6,5.4-8.4
				c2-2.1,1.1-3.5-0.1-5.1c-0.4-0.6-1-1-1.4-1.6C213.6,61.8,212.8,61.7,210.9,63.6z"/>
			<path class="st0" d="M104.3,76.6c1.1,1,1.7,1.4,2.1,1.9c1.8,2.3,3.7,2.3,6.1,0.8c2.2-1.4,4.5-2.8,7-3.8c4.9-2.1,9.8-3.9,14.7-6.1
				c-2.5-2.2-5-4.3-7.7-6.3c-1.2,0.8-2.3,1.6-3.5,2.3C116.8,69.1,110.8,72.7,104.3,76.6z"/>
			<path class="st0" d="M210,33.4c0,3.5,0,8,0,12.9c5.7-6.4,11.4-12.9,17.2-19.4C221.3,29.1,215.5,31.1,210,33.4z"/>
			<path class="st0" d="M218.1,90.4c3.3-4.9,6-10.2,9-15.4c-2.5-1.5-5-3.1-7.6-4.7c-3.2,4.4-6.4,8.7-9.5,13.1c0,8.4,0,14.5,0,14.8
				c0,0.3,0,0.6,0,0.9c0.3-0.3,0.6-0.6,0.9-0.8C213.4,95.6,216.2,93.2,218.1,90.4z"/>
			<path class="st0" d="M133.5,117.2c0.4,0.7,0.8,1.4,1.3,2.1c3.1-3,6.5-5.8,9.6-8.9c3.5-3.4,6.7-7.2,10-10.8
				c2.6-2.9,2.6-3.4,0.2-6.7c-0.4-0.5-0.5-1.2-0.7-1.8c-5.4-7.3-11.6-14.3-18.6-20.6c-5.1,2.5-10.3,4.9-15.2,7.6
				c-5,2.7-9.7,5.8-14.4,8.7C116.5,94.6,125.8,105.2,133.5,117.2z"/>
			<path class="st0" d="M241.5,10.2c-4.2-0.1-14.2-0.4-23.5-0.6h-8v15.8c0,0.1,0,1.2,0,3.1c7.5-2.7,25.5-13.4,31.5-17V10.2z"/>
			<path class="st0" d="M100.6,48.8l-5.9-1.9c0.4,7.4,1.4,14.7,4,21.7c0.3,0,0.6-0.1,0.9-0.1c-0.1-1.3-0.2-2.6-0.3-3.8
				c-0.3-4-0.1-7.9,0.8-11.9C100.4,51.5,100.5,50.1,100.6,48.8z"/>
			<path class="st0" d="M241.5,21.4c-8.4,6.1-16.7,12.3-17.9,13.7c1,1.5,1.9,2.8,2.7,4.1c2.1,3.5,4.3,3.7,6.9,0.6
				c0.5-0.6,1.1-1.1,1.7-1.6c0.7-0.6,3.3-3.7,6.6-7.6c0-3.1,0-5,0-5.2V21.4z"/>
			<path class="st0" d="M58.7,30.7c5-0.6,10-1.1,15-1.7c-2.5-5.7-5.5-11.1-8.9-16.1l-4-5.9c-4.6-0.4-9.3-0.7-14-0.9L29.9,17.9
				l8.9,13c0.4,0.6,0.7,1.1,1.1,1.7c4.4-0.4,8.9-0.7,13.4-1.1C55.1,31.2,56.9,30.9,58.7,30.7z"/>
			<path class="st0" d="M106.7,71.6c4.6-2.7,9.3-5.4,13.8-8.2c1.1-0.7,2.2-1.4,3.3-2.2c-2.3-1.6-4.6-3.1-7-4.6
				c-4.5-2.9-9.6-4.9-14.4-7.3l-0.7-0.2c-0.4,3.6-1,7.1-1.2,10.7c-0.2,4.5,0.9,9.1,1.5,14C104.1,72.9,105.5,72.3,106.7,71.6z"/>
			<path class="st0" d="M223,56.3c-1.1-0.8-2.4-1.5-3.5-2.2c-1.3,1.9-3.8,3.7-3.7,5.6c0.1,2.2,2.2,4.4,3.8,7.2
				c2.3-3.2,4.2-5.8,6.1-8.4C224.6,57.7,223.8,56.9,223,56.3z"/>
			<path class="st0" d="M232.4,49.3c0.3-0.4,0.2-1.1,0-1.5c-0.6-0.9-1.5-1.7-2.5-2.8c-2.7,2.3-5.3,4.6-8.1,7
				c1.9,1.5,3.7,2.9,5.5,4.3C229.1,53.8,230.8,51.6,232.4,49.3z"/>
			<path class="st0" d="M241.5,36c0-0.5,0-1,0-1.5c-3.5,3.2-7,6.3-10.5,9.5c1.2,0.9,2.1,1.6,3.2,2.4C236.7,42.9,239.1,39.5,241.5,36
				z"/>
			<path class="st0" d="M241.5,51.7c0-3.5,0-6.8,0-9.9c-1.7,2.1-3.4,4.3-5.1,6.4c1.7,1.3,3.2,2.3,5,3.6
				C241.4,51.8,241.4,51.7,241.5,51.7z"/>
			<path class="st0" d="M58.6,4.1L55.8,0l-6.1,4.2c0.1,0,0.2,0,0.4,0C53,4.1,55.8,4.1,58.6,4.1z"/>
			<path class="st0" d="M61.1,105.1c3.8-1,7.6-1.4,11.1-3.6c3.7-2.4,7.9-4.1,11.8-6.2c0.1-0.1,0.3-0.2,0.4-0.3V79.8
				C84,79.9,83.6,80,83.3,80C77.3,81,71.4,82,65.5,83c-0.7,0.1-1.5,0.4-2.2,0.7c0.4,0.6,9.3,11.4,9.8,12.1c-1,0-10.5-10.1-10.9-10.4
				c-1.9-1.6-3.9-0.9-5.9-0.5c-1.1,0.2-2.2,0.4-3.3,0.6v20C55.7,105.3,58.5,105.8,61.1,105.1z"/>
			<path class="st0" d="M251.6,148.7c-9.5-1.9-19-3.9-27.7-8.1c-2.7,3.3-4.5,6.7-5.2,10.5c10.4,29.4,28.2,47.4,43.5,62.9
				c1.4,1.4,2.8,2.8,4.1,4.2c0.6-15.9,1.1-31.9,1.5-44.3C261.7,166.6,256.1,158.5,251.6,148.7z"/>
			<path class="st0" d="M220.8,124.7c2-2.1,4-4.1,5.9-6.3c2.5-2.9,3.8-6.5,7.1-8.8c1-0.7,1.5-1.8,2.3-2.7c1.8-2,3.5-4.1,5.5-6
				c0-1.1-0.1-2.2-0.1-3.3c0-1.1,0-15.5,0-31.2c-0.8-0.2-1.6-0.4-2.4-0.6c-0.4-0.1-1.4,0.5-1.6,1c-2.4,4.5-4.8,9.1-7,13.6
				c-1.3,2.6-2.3,5.3-3.4,7.9c-0.1,0.2-0.2,0.5-0.3,0.7c-0.5,1.4-1,2.7-1.5,4.1c-0.4,1-0.8,2-1.3,3c-1,2.1-1.8,4.4-3.1,6.3
				c-1.6,2.5-1.8,2.3,1.2,3.4c2,0.7,5.6,3.1,5.5,3.5c-3.1-1.1-6.3-2.3-9.7-3.5c-1.7,3-3.5,5.9-5.1,8.9c-0.5,0.9-1,1.8-1.5,2.7
				c1.2,10.4,3.2,19.7,5.7,28.1c0.1-0.1,0.2-0.2,0.3-0.3c0.2-0.2,0.3-0.6,0.3-1c0.3-3.7,0.3-7.5,1.1-11.1c0.6-2.5,1.5-4.8,1.1-7.5
				C219.8,125.5,220.5,125.1,220.8,124.7z"/>
			<path class="st0" d="M407.9,48.8c0-2.4,0.1-4.9-0.7-7.1c-1-2.7-2.6-5.2-3.9-7.8v6.4c0,3.4-0.3,6.5-1,9.5c1.4,0.5,2.9,1,4.3,1.4
				c-0.4-2.3-0.7-3.9-1-5.5c0.1,0,0.2-0.1,0.3-0.1C406.6,46.6,407.3,47.7,407.9,48.8z"/>
			<path class="st0" d="M432.5,85.6c-1.7-0.9-2.3-0.6-3.1,0.9c-1.9,3.4-2.8,6.9-3.5,10.5c0.8,1.1,1.7,2.2,2.5,3.3
				c10.4,13.6,18.6,24.3,18.6,41.1v9.8c2.4,2,4.8,4,7.2,6h24.3v-15.8c0-17.5-5.4-31-12.4-42.4c-1.1-0.3-2.1-0.7-3.2-0.9
				c-6.2-1.6-12.1-3.9-17.9-6.3C440.5,90.1,436.5,87.8,432.5,85.6z"/>
			<path class="st0" d="M428.6,63.2c-1.8-1.1-4.1-1.6-6.1-2.5c-3-1.4-6-2.9-9-4.2c-1.5-0.6-3.3-0.5-4.8-1.1
				c-2.4-0.8-4.8-1.6-7.1-2.4c-1,3.3-2.3,6.5-3.9,9.6c2.6,1.2,5.2,2.4,7.8,3.7c7.8,3.6,15.6,7.1,23.4,10.8c1.1,0.5,2.2,1.1,3.3,1.7
				c0.7,1.5,1.9,2.8,3.8,3.4c1.9,0.7,3.9,1.3,5.8,1.9c2.2,1.1,4.4,2.2,6.8,3.1c4.7,1.7,9.2,3.9,13.7,6.1c-2.9-4.2-5.9-8.2-8.8-12
				c-2.4-3.2-4.7-6.2-6.9-9.2c-3.8-1.1-6.2-1.9-6.6-2C436.3,67.7,432.2,65.5,428.6,63.2z"/>
			<path class="st0" d="M446.9,154.6v2.6h3.3C449,156.4,448,155.5,446.9,154.6z"/>
			<path class="st0" d="M328.7,29.1V25c-0.9-0.3-1.8-0.7-2.7-1c-6.8-2.5-13.7-4.9-20.4-7.4c-0.9-0.3-2.8-0.7-3-0.2
				c0.5,0.3,1,0.7,1.5,1c5.3,2.4,10.6,4.7,15.8,7.2C322.8,26.1,325.8,27.6,328.7,29.1z"/>
			<path class="st0" d="M312.2,30.8c-1.3,2-8.9-0.3-8.9-0.3s7.5,8.4,9.2,9.7C312.8,36.9,312.5,30.9,312.2,30.8z"/>
			<path class="st0" d="M107,81.3c-2.1-2.9-4.7-4.6-8.5-3.9c-2.5,0.4-4.9,0.9-7.4,1.3c3.2,1.7,6.6,2.8,9.6,4.9
				c0.2,0.1,0.5,0.3,0.7,0.4c1-0.5,1.9-0.9,2.9-1.4C105.2,82.1,106.1,81.7,107,81.3z"/>
			<path class="st0" d="M328.7,33.5c-2.2-0.8-4.5-1.6-6.8-2.2c2.3,2.5,4.5,5.1,6.8,7.6V33.5z"/>
			<path class="st0" d="M328.7,22.9v-6.7c0,0.1-0.1,0.2-0.1,0.2c-0.1-0.4-0.4-0.9-0.2-1.2c1.5-2.6-10.6-0.3-10.6-0.3s4.4,5.4,6,6
				c1.7-1.4,3.1-2.5,4.5-3.6c-0.4,1.5-0.9,3.1-1.4,4.8C327.4,22.4,328.1,22.7,328.7,22.9z"/>
			<path class="st0" d="M310.7,43.7c1-1.4,0.8-2.4-0.4-3c-1.5-0.8-2.4-3.4-5.1-1.7c-2.2,1.4-4.4,2.6-6.9,4.2c1.9,3,3.9,6.1,6.3,9.9
				C306.9,49.4,308.6,46.4,310.7,43.7z"/>
			<path class="st0" d="M60.4,80.1c8.3,1,16.1-0.9,24-2.5c0-0.4,0-0.8-0.1-1.2l2.4,0.8c1.3-0.2,2.6-0.5,3.9-0.7
				c2.1-0.3,4.2-0.6,6.4-0.9c1.5-0.3,2.9-0.6,4-0.9c-1.6-2.9-3.8-5.5-4.5-8.4c-1.3-5.1-2-10.5-2.6-15.7c-0.1-1.3-0.2-2.7-0.2-4
				c-2.4-0.7-4.7-1.5-5.5-1.6c-4.2-1.2-6.9-2.8-10.7-6.4c-0.9-2.7-1.9-5.3-3-7.8C63.2,31.8,52,32.9,40.8,34
				c6.7,11,10.9,25.3,11.9,39.8c0.9,1.5,1.9,2.9,3,4.2C56.9,79.3,58.4,79.9,60.4,80.1z"/>
			<path class="st0" d="M297.4,40.1c2.3-0.9,4.7-1.8,6.9-2.8c0.2-0.1,0.2-1.1-0.1-1.4c-2.3-2-4.7-3.9-7-5.8v10
				C297.3,40.1,297.4,40.1,297.4,40.1z"/>
			<path class="st0" d="M58.1,82.8c-1.9-1.9-3.6-3.5-5.3-5.1c0,0.7,0,1.5,0,2.2v3.9C54.7,83.4,56.4,83.1,58.1,82.8z"/>
			<path class="st0" d="M328.7,93.5v-20c-0.9,0.6-1.8,1.1-2.6,1.7c-2.2,1.5-3.8,3.7-6,5.8c2.1,4.2,4.5,8.8,7,13.9
				C327.6,94.4,328.1,93.9,328.7,93.5z"/>
			<path class="st0" d="M302,82.3c-0.6-1.3,0-3.2-2.8-3.2c-0.7,0-1.3-0.1-2-0.2v23.2c4.2-0.9,8.4-2.1,12.4-3.1
				C306.9,93,304.4,87.7,302,82.3z"/>
			<path class="st0" d="M182.5,148.1c-1.9-5.8-4.1-11.6-6.5-17.3c-1.3,1.8-2.7,3.7-4,5.6c-2,2.8-3.6,5.8-5.7,8.5
				c-2.2,2.9-4.7,5.7-7.2,8.4c-1,1.2-0.9,2.1,0.4,2.9c3.9,2.5,7.8,4.9,11.9,7.5C175.3,158.3,179.1,153.2,182.5,148.1z"/>
			<path class="st0" d="M187,169.8c0.6,0.2,1.2,0.3,1.8,0.5c-1.1-4.7-2.4-9.4-3.7-14.1c-0.7,0.5-1.4,1.1-2.1,1.6
				c-2.9,2.4-5.5,5.1-8.9,8.3c3.1,1.1,5.5,2.1,8,2.9C183.7,169.4,185.4,169.4,187,169.8z"/>
			<path class="st0" d="M434.8,27.4V11.1h-31.5v11.1c7.4,1.7,14.8,3.9,22.4,4.8C428.6,27.3,431.7,27.4,434.8,27.4z"/>
			<path class="st0" d="M162.9,106c-1.6-2.1-2.8-3.8-4.2-5.6c-0.7,0.4-1.2,0.6-1.6,1c-4.4,4.2-8.5,8.5-13.1,12.5
				c-2.7,2.4-5.5,4.7-8.3,7c1.4,2.4,2.8,4.8,4,7.2c3.1-3.1,6.2-6.1,9.4-9.2C153.7,114.7,158.3,110.4,162.9,106z"/>
			<path class="st0" d="M170.3,165.2c-4.6-2.9-8.9-5.7-13.8-8.8c-0.6,0.8-1.7,2.3-3.3,4.5c1.9,6.1,3.6,12.3,5,18.6
				c2.1-2.6,4.6-5.1,6.8-7.7C166.9,169.6,168.6,167.4,170.3,165.2z"/>
			<path class="st0" d="M324.3,96.8c0.7-0.2,1.5-1.6,1.3-2.2c-0.9-2.4-1.8-4.8-3.3-6.9c-3.4-4.6-5.8-9.5-7.9-14.7
				c-1.6,2.1-3.2,4.2-4.8,6.4c-2.5,3.6-3.8,7.2-1,11.3c1.9,2.8,3,6,4.4,9C317,98.7,320.7,97.9,324.3,96.8z"/>
			<path class="st0" d="M446.9,264.2c0,16.8-8.2,27.5-18.6,41.1c-3.1,4-6.3,8.2-9.3,12.7c-3-4.5-6.2-8.7-9.3-12.7
				c-10.4-13.6-18.6-24.3-18.6-41.1V225c4.1,2.5,8.9,4.5,14.8,4.6c0.4,0,0.8,0,1.2,0c10.7,0,21-4.4,37.4-15.9l12.9-9l-18.1-25.8
				l-12.9,9.1c-9.9,6.9-16.3,10.3-18.6,10.3c-1-0.4-3.4-2.7-5.1-4.1c-3-2.7-6.8-6.1-11.7-8.8v-43.9c0-11.2,3.7-19.7,9.2-28.2
				c-0.1-0.1-0.2-0.4-0.2-0.4c0.2,0,0.3-0.1,0.5-0.1c2.7-4,5.8-8.1,9.1-12.4c3.1-4,6.3-8.2,9.3-12.7c1.9,2.7,3.8,5.4,5.7,8
				c0.6-4,1.4-8,5-11.3c-11.7-5.9-23.2-11.7-34.6-17.5c-3,4.7-6.5,9.4-10.4,14.5c-2.6,3.4-5.2,6.8-7.7,10.5
				c7.3,6.6,15.1,12.9,21.9,20c-0.7-0.5-1.5-1.1-2.2-1.6c-0.7-0.6-1.5-1.2-2.2-1.8c-5.9-5.2-11.8-10.4-17.7-15.6
				c-0.1-0.1-0.2-0.2-0.3-0.3c-1.8,2.6-3.6,5.4-5.2,8.2c1.8-1,3.3-2.6,5-3.7c0.5-0.3,1.3-0.2,2-0.3c-0.2,0.6-0.1,1.5-0.5,1.8
				c-2.5,1.3-4.9,2.7-7.5,3.8c-4.3,7.6-7.8,16.2-9.5,26.2h-1.2v15.2c2.3,4,4.6,8,6.7,11.8c0,0-0.5-0.1-1.9-0.4
				c4.3,5.8,8.2,11,12.2,16.2c-8.9-6.5-11.8-16-17-24.2v39.2c4.6-3.2,15.4-9.9,15.5-10.1c0.5-0.7,1.4-1.6,2.3-1.7
				c0.8-0.1,2.3,0.4,2.8,1c1.7,2.3,3.2,4.7,4.8,7.1c1.6,2.5,3.3,5.1,4.9,7.6c1,1.6,13.7,24.1,13.4,24.2
				c-3.1-4.5-17.3-28.2-20.4-32.7c-1.1-1.6-2-3.3-3.3-4.7c-0.4-0.4-2,0-3,0c-0.1,0.2-12.1,6.9-16.9,9.7V212
				c15,35.7,40,95.1,39.8,95.1c-1.1-2.4-23.7-53.1-39.8-89.4v59.5h1.2c3.4,20.1,14.1,34.4,23.8,47.1c10.4,13.6,18.6,24.3,18.6,41.1
				v29.1h31.5v-29.1c0-16.8,8.2-27.5,18.6-41.1c11.7-15.4,25-32.8,25-60.2v-15.8h-31.5V264.2z"/>
			<path class="st0" d="M599,268.1c-4.4-5.5-9.3-11.6-14.5-18.6c11.4-5.7,21-14.2,27.9-23.9c17.5-25,22.4-54,20.8-81.7
				c-2-27.7-11.6-56.2-32.3-77.8c-10.3-10.7-23.4-19-37.4-23.8c-3.5-1.2-7.1-2.2-10.6-3l-8.4-1.7c-2.6-0.7-4.2-1.1-6.3-2.1
				c-3.1-8.2-7-15.8-11.6-22.5l-0.3-0.5c-2.9-0.2-5.9-0.5-8.8-0.7c-5-0.4-10-0.9-15-1.3l-10.8,7.4l2.1,3.1
				c5.5-0.9,10.9-1.6,16.5-2.3c1.2-0.1,2.4-0.1,3.7,0.3c-4.9,0.7-9.9,1.1-14.7,2.1c-1.6,0.3-3.2,0.6-4.8,1l6.1,8.8
				c6.1,8.8,10.5,20.3,12.6,32.3c4.8,3.2,7.6,5.3,7.6,5.5c-2.5-1.3-4.9-2.6-7.3-3.8c0.8,5,1.2,10,1.2,15v11.3
				c6.1,2.2,10.2,3.9,10.7,4.4c-0.5-0.2-4.6-1.4-10.7-3.2v22.8c10.3,4.1,21.4,8.7,31.5,12.8V79.8c0-3.3-0.2-6.7-0.4-10l0.1,0
				c2.5,0.6,4.9,1.3,7.3,2.1c9.5,3.3,18,8.9,25,16.1c14,14.6,21.8,36.2,23.1,57.9c1.4,21.7-3.5,44.6-15.1,60.6
				c-5.7,8-12.9,13.8-21.2,16.5c-4.3,1.4-8.3,2.1-13.5,2l-5.4,0v-93.7c-14.9-5-29.1-9.8-30-10c-0.5-0.1-1.1-0.2-1.5-0.4v215
				c0,17.9-5.3,36.2-14.1,49l-8.9,13l25.9,17.9l8.9-13c12.5-18.1,19.6-42.5,19.6-66.9v-79.2l4.8,0l1.1,1.5
				c8.3,11.8,15.8,21.1,22.4,29.4c15.3,19.1,21.5,27.3,21.5,39.6l0,68.9h31.5l0-68.9C627.5,303.6,614.9,287.9,599,268.1z"/>
			<path class="st0" d="M311.4,173.9c-0.5,0.2-1.1,0-1.8-0.4c2.1-0.7,4.1-1.3,6.2-2c4.3-1.4,8.6-2.7,12.9-4.1v-21.7
				c-0.6-1.8-1.1-3.6-1.6-5.4c-1.6-5.1-3.2-10.2-4.7-15.3c-0.6-1.9-0.5-4-1.4-5.7c-2.2-4.1-4.9-7.9-7.2-11.9
				c-0.7-1.3-0.7-2.9-0.9-3.7c-5.4,0.3-10.6,0.6-15.7,0.8v34.1c0.6,2.6,1.1,4.8,1.4,6.4c3.3,3.7,3.6,7.9,3.3,12.1
				c-1-3.5-2-7-2.9-10.6c0,0-0.7-2.5-1.7-6.4v33.5c0.3,0.1,0.5,0.1,0.8,0.2c1.4,0.3,3-0.1,4.9-0.3c-0.4-4.4-0.8-11-1.2-15.3
				c0.5,0,13.5,63.4,14.9,85.1c-0.4,0-4.9-22.5-5.1-24.7c-0.1-0.7-0.1-1.5-0.4-2.2c-0.7-1.5-1.1-2.8-0.9-4.5c0.2-1.4-1.1-3-1.8-4.4
				c-0.4-1.1-1.1-2.1-1.2-3.2c-0.2-2.8-0.1-5.6-0.1-8.4c0-2.6,0-5.2-0.1-7.8c0-0.4-0.7-0.8-0.7-1.3c-0.2-1.5-0.6-3.2-0.3-4.7
				c0.4-2.1-3.8-7.1-6.2-7.3c-0.9-0.1-1.8-0.2-2.8-0.3V205c-4.2-4.6-8.4-9-12.5-13.2c-4.6-4.7-9.2-9.3-13.5-14.1
				c0,2,0.1,3.9,0.1,5.9c0,0.3-1.1,17.4-2.3,37.2c16,16.6,27.8,32,27.8,61.7c-2.8,54.3-18,70.2-31.3,74.9
				c-2.2-10.3-8.3-22.2-24.9-29.2l-14.5-6.1l-12.2,29l14.5,6.1c5.9,2.5,7,4.8,7,15.3v18.4h15.8c57.8,0,72.6-52.6,76.4-92.4h0.9
				v-12.2c0.4-8.7,0.5-16.2,0.5-21.8v-95.9C322.9,170.3,317.1,172.1,311.4,173.9z"/>
			<path class="st0" d="M434.8,30.3c-4.6-1-9.6-1.3-14.4-1.7c-5.1-0.5-10.3-0.7-15.4-1.1c-1.1,5.8,1.6,10.3,4.1,14.9
				c1.2,2.3,2.5,4.6,3.9,6.7c0.5,0.7,10-18.7,10.9-18.4c1.9,0.6-6,21.5-6.2,23.2c-0.1,0.7,0.5,1.7,1.1,2.1
				c5.7,3.1,11.6,6.1,17.4,9.2c0.6,0.3,1.1,0.9,1.8,1c0.6,0.1,2.5,0.6,5.4,1.5c-5.3-8.2-8.8-16.6-8.8-27.5V30.3z"/>
			<path class="st0" d="M195.1,207.9c-4.8,17.4-18.7,72.9-20.1,75.9c-0.2-0.1,15.4-62.6,19.9-78c-1.2-11.3-3.1-22.5-5.6-33.7
				c-3.2-0.8-6.4-1.6-9.5-2.4c-1.5-0.4-3.1-0.8-4.3-1.6c-1.8-1.2-2.6-0.4-3.9,0.5c-5.3,3.6-8.1,8.8-11.7,13.6
				c-0.2,0.3-0.5,0.6-0.8,1c2.1,10,3.5,20.2,4.4,30.3c2.8,34-0.8,69.6-15,98.2c-7,14.2-17.3,25.6-29.6,32.2
				c-6.4,2.7-13.2,5.3-20.4,5.5c-3.1,0.6-8.1,0.4-12.6,0.5l-2.3,0c0.5-4.6,0.9-9.3,0.9-13.9V195.9c-10.6,12.6-22.7,26.9-31.5,37.3
				V336c0,17.9-5.3,36.2-14.1,49l-8.9,13l25.9,17.9l8.9-13c4.4-6.4,8.1-13.7,11.1-21.4l10.2,0c4.7,0,8.8,0.2,14.8-0.4
				c11.2-0.4,21.9-4,32.2-8.5c20.2-10.3,35.2-27.7,44.3-46.1c18-37.3,21-77.3,18-115.6C195.3,209.9,195.2,208.9,195.1,207.9z"/>
			<path class="st0" d="M326.4,126.8c0.8,1.9,1.6,3.8,2.2,5.7v-17.5c-2.7,0.4-6.1,0.4-6.6,0.1c0.5-0.4,0.9-1.1,1.5-1.3
				c1.7-0.4,3.4-0.9,5.1-1.3V98.7c-0.1-0.2-0.2-0.4-0.3-0.5c-4.6,1.4-8.9,2.6-13.6,4c2.1,4.4,4.5,9.4,6.9,14.4
				C323.2,119.9,324.9,123.3,326.4,126.8z"/>
			<path class="st0" d="M517.2,9.2c2.5,0.1,4.9,0.4,7.3,0.8l-6.9-10l-13.1,9C509.3,9.9,513,9.1,517.2,9.2z"/>
			<path class="st0" d="M84.4,167.7c-10.3,9.5-19.2,17.7-19.2,17.7s8.9-8.6,19.2-18.5V96.2c-0.1,0.1-0.2,0.1-0.3,0.1
				c-2.5,1.4-5.3,2.3-7.8,3.7c-2.8,1.6-6.2,2.7-7.1,5.7c-5.5,0.6-11,1.1-16.3,1.7v124.3c10.1-13,24.1-30.9,31.5-40.6V167.7z"/>
			<path class="st0" d="M231.3,114.5c-2.8,3.3-5.9,6.4-8.2,9.9c-1.3,2-1.2,4.6-1.5,7c0,0.4,1.1,1.1,1.9,1.2c2.3,0.5,4.9,0.3,6.9,1.2
				c2,0.8,3.4,0.9,5.4,0.4c3.3-0.8,6.7-1.2,10-1.9c-0.3-1.1-0.5-2.1-0.8-3.2c-2.9-0.7-6.8-1.3-11.1-1.7c3-0.2,6.9-0.2,10.7,0
				c-0.8-3.7-1.5-7.6-2-11.7c-0.3,0-0.5,0.1-0.8,0.1c-1-0.7-1.7-1.3-2.4-1.6c-0.8-0.4-1.8-0.4-2.6-0.8
				C234.6,112.1,232.8,112.8,231.3,114.5z"/>
			<path class="st0" d="M239.8,54.3c0.2-0.4-0.2-1.5-0.6-1.9c-1.2-1-2.6-1.7-4-2.6c-1.9,2.8-3.8,5.6-5.7,8.4c2,1,3.9,2,6.1,3.1
				C237.1,58.9,238.5,56.7,239.8,54.3z"/>
			<path class="st0" d="M242.4,112.9c-0.2-2.4-0.4-4.8-0.6-7.3c-2.4,1.8-4.9,3.6-7.5,5.5C237.2,112.2,239.8,113,242.4,112.9z"/>
			<path class="st0" d="M328.7,69.4v-5.3c-3.1,1.5-6.3,3-9.3,4.5c-4.1,2.1-4.1,2.6-1.3,6.1C322.3,73.7,325.8,71.9,328.7,69.4z"/>
			<path class="st0" d="M211.4,105.6c-0.4,0.5-0.7,1.1-1.1,1.7c0.1,2.2,0.3,4.3,0.5,6.4c1.5-2.9,2.7-6,3-9.7
				C212.7,104.7,211.9,105,211.4,105.6z"/>
			<path class="st0" d="M230.1,60.9c-0.8-0.3-2.3-0.4-2.7,0c-2.1,2-4,4.1-5.7,6.4c-0.3,0.4,0.3,1.6,0.8,2.1c1.6,1.6,3.4,3,5.3,4.7
				c2.3-3.6,4.5-7.2,6.7-10.7C232.9,62.4,231.6,61.5,230.1,60.9z"/>
			<path class="st0" d="M217.7,101.1c0.8-1.4,1.7-2.8,2.5-4.2c2-3.2,5.1-5.9,5.4-10c0.1-1.9,1.6-3.8,2.3-5.7c0.4-1,0.2-2.2,0.3-3.3
				c-0.8,0.7-1.8,1.4-2.4,2.2c-2.8,4.4-5.4,8.9-8.2,13.4c-1.8,2.8-3.7,5.6-5.4,8.4C215.2,104,216.2,103.7,217.7,101.1z"/>
			<path class="st0" d="M241.4,64.2C241.4,64.2,241.4,64.2,241.4,64.2c0.1-2.5,0.1-5,0.1-7.5c-0.4,1.4-0.7,2.8-1.4,4.1
				C238.9,62.7,239.9,63.6,241.4,64.2z"/>
			<path class="st0" d="M158.9,151.8c2.1-2.5,4-5.2,6.2-7.6c2.2-2.5,3.7-5.4,5.2-8.3c1.3-2.5,3.2-4.7,5-6.9
				c-3.2-7.3-6.8-14.5-10.8-21.6c-0.7,0.1-1.4,0.5-2,1.1c-7.4,7-15,13.8-22,20.9c4.9,9.5,9,19.6,12.3,30c0.8-1.2,1.5-2.4,2.3-3.5
				C156.2,154.4,157.7,153.2,158.9,151.8z"/>
			<path class="st0" d="M297.2,71.7v2.6c0.4-0.1,0.8-0.2,1.4-0.4C298.1,73.2,297.6,72.5,297.2,71.7z"/>
			<path class="st0" d="M324.2,63.4c1.6-0.4,4.1-1.3,4.4-2.4c0-0.1,0-0.1,0.1-0.2v-5.6c-0.9-1.1-1.5-1.9-1.4-2c0.5,0.3,1,0.7,1.4,1
				v-12c-3.4-3.8-6.7-7.7-9.9-11.7c-0.4-0.5-1.3-0.8-1.9-1.2c-0.5,0.7-1.2,1.4-1.3,2.1c-0.3,2.6-0.5,5.1-0.6,7.7
				c0,1.2-0.1,2.8,0.6,3.6c2.2,2.3,4.8,4.2,7.1,6.4c1.3,1.1,2.5,2.4,3.8,3.5c-0.3,0.2-3.3-1.2-4.5-2.2c-2.1-1.7-4.2-3.6-6.4-5.3
				c-1.6-1.3-4.3-0.8-5.2,0.8c-1.3,2.2-2.7,4.4-3.8,6.7c-0.5,0.9-0.7,2.4-0.2,3.2c1.8,3,3.9,5.9,6.1,8.7c0.6,0.7,1.9,1.2,3,1.5
				C319,66.9,321.2,64.2,324.2,63.4z"/>
			<path class="st0" d="M313.1,67.7c-0.8-1.1-1.2-1.5-1.5-2c-1.9-2.8-3.8-5.6-5.9-8.3c-0.6-0.8-1.9-1.5-2.9-1.6
				c-2.2-0.3-3.9,0.4-5.6,1.4v11.8c1,1.8,2,3.6,3.1,5.4C304.5,72.1,308.7,69.9,313.1,67.7z"/>
			<path class="st0" d="M222.6,138.3c3.4,1.7,6.9,3.2,10.5,4.4c5.7,2,11.7,3.3,17.7,4.1c-1.6-3.8-3.1-7.9-4.3-12.3
				c-1.1,0.3-2.1,0.5-3.2,0.7c-5,0.8-10.1,1.2-15.1,1.7c-0.5,0-1.1-0.9-1.7-1.2c-1.1-0.5-2.3-1-3.5-1.2c-0.4-0.1-1.5,0.7-1.5,1
				C221.6,136.5,221.8,137.9,222.6,138.3z"/>
			<path class="st0" d="M174.6,163.2c2.1-2.4,4.4-4.8,6.4-7.4c1-1.2,1.9-2.4,2.9-3.6c-0.3-0.9-0.6-1.9-0.9-2.8
				c-2.9,4.5-5.9,9-8.8,13.5C174.3,163,174.4,163.1,174.6,163.2z"/>
		</g>
		<g>
			<path class="st0" d="M320,448.7h-6.4V476h6.4c9.3,0,14-5.2,14-13.6C334,453.9,329.3,448.7,320,448.7z"/>
			<path class="st0" d="M505,448.5c-7.3,0-12.8,5.2-12.8,13.8c0,8.6,5.6,13.9,12.8,13.9c7.3,0,12.8-5.3,12.8-13.9
				C517.9,453.7,512.3,448.5,505,448.5z"/>
			<path class="st0" d="M219.7,448.7h-6.6v13.2h6.6c5.5,0,7.7-2.5,7.7-6.6C227.4,451.1,225.2,448.7,219.7,448.7z"/>
			<path class="st0" d="M642.8,410l-13,8.9c-12.8,8.8-31.2,14.1-49,14.1h-501c-24.4,0-48.7,7.2-66.9,19.6l-13,8.9l36.9,51.9l13-8.9
				c12.8-8.8,31.1-14.1,49-14.1h501c24.3,0,48.7-7.2,66.9-19.6l13-8.9L642.8,410z M125.4,448.6h-13.8v12.2H124v2.7h-12.4V476h13.8
				v2.7h-17.1v-32.8h17.1V448.6z M178.9,478.7h-3.7l-8.3-13.7l-7.9,13.7h-3.7l9.9-16.5l-9.9-16.2h3.7l8.3,13.6l8-13.6h3.7l-10,16.4
				L178.9,478.7z M219.7,464.7h-6.6v14h-3.3V446h9.9c7.6,0,11.1,4,11.1,9.4C230.7,460.7,227.4,464.7,219.7,464.7z M278.6,448.6
				h-13.8v12.2h12.4v2.7h-12.4V476h13.8v2.7h-17.1v-32.8h17.1V448.6z M320,478.7h-9.7V446h9.7c10.9,0,17.3,6.2,17.3,16.4
				C337.4,472.5,330.9,478.7,320,478.7z M372,478.7h-3.3V446h3.3V478.7z M423.8,448.7h-9.1v30h-3.3v-30h-9.1V446h21.5V448.7z
				 M457.6,478.7h-3.3V446h3.3V478.7z M505,479c-9.2,0-16.2-6.9-16.2-16.7c0-9.8,7-16.7,16.2-16.7c9.2,0,16.2,6.9,16.2,16.7
				C521.2,472.1,514.3,479,505,479z M577.2,478.7h-3.3l-18.1-27.5v27.5h-3.3V446h3.3l18.1,27.5V446h3.3V478.7z"/>
		</g>
	</g>
</g>
</svg>
